<svg id="Слой_1" data-name="Слой 1" xmlns="http://www.w3.org/2000/svg" width="82.48" height="67.69" viewBox="0 0 82.48 67.69">
  <g>
    <path d="M52.41,25.48l.92.32c0,.15-.11.22-.21.31A18.6,18.6,0,0,0,50,28.6a17.26,17.26,0,0,0-3.32,19.86,1.55,1.55,0,0,1,.22.6c-.19.54-.73.75-1.12,1.1a17.19,17.19,0,0,0-4.11,5.64A15.8,15.8,0,0,0,40.32,60a.65.65,0,0,1-.09.23.37.37,0,0,1-.14.07,18.18,18.18,0,0,1-5.83-.59,20,20,0,0,1-7.6-3.87,18.48,18.48,0,0,1-4.07-4.57,2.86,2.86,0,0,1-.41-1.51c0-.42,0-.83,0-1.25a22.88,22.88,0,0,1,1.5-7.45A24.9,24.9,0,0,1,34.78,28a24.93,24.93,0,0,1,17.09-2.76A3.21,3.21,0,0,1,52.41,25.48Z" transform="translate(-7.11 -17.32)" fill="#563ecf"/>
    <path d="M53.41,25.77A18.59,18.59,0,0,1,58.1,24a17.05,17.05,0,0,1,15.11,3.61A16.54,16.54,0,0,1,79.27,38.8,17,17,0,0,1,75,52.41a21.08,21.08,0,0,1-2.17,2.06,1.81,1.81,0,0,0-.25.3.16.16,0,0,1-.14-.05,10.28,10.28,0,0,1-.84-1.53c0-1.09.19-2.18.19-3.28a25.61,25.61,0,0,0-1.54-8.76c-.08-.21-.15-.41-.21-.62A1.16,1.16,0,0,0,69.8,40c-.65-1.23-1.22-2.51-2-3.68a25,25,0,0,0-7.19-7.2A24.05,24.05,0,0,0,53.88,26C53.71,26,53.5,26,53.41,25.77Z" transform="translate(-7.11 -17.32)" fill="#e1c26b"/>
    <path d="M72.48,54.68l.07.09a16.93,16.93,0,0,1,1.93,6.15A17.29,17.29,0,0,1,59.65,80.1a16.81,16.81,0,0,1-13.69-4c-.62-.53-1.18-1.12-1.77-1.68a.16.16,0,0,1,.11-.1,27.93,27.93,0,0,0,3.54.13,24.64,24.64,0,0,0,9.1-2A24.5,24.5,0,0,0,69.55,60.06a27.65,27.65,0,0,0,1.54-4.43.62.62,0,0,1,.12-.19A7.11,7.11,0,0,1,72.48,54.68Z" transform="translate(-7.11 -17.32)" fill="#f47180"/>
    <path d="M52.41,25.48a26.8,26.8,0,0,0-5.58-.55,25.49,25.49,0,0,0-7.25,1.16,24.76,24.76,0,0,0-17,19.84,13.92,13.92,0,0,0-.24,2.58,12.28,12.28,0,0,0,0,1.36c0,.15.06.32-.06.47A19,19,0,0,1,19.59,42,19.78,19.78,0,0,1,33.87,21.3a19.08,19.08,0,0,1,5.61-.76,19.76,19.76,0,0,1,12.73,4.73A1.31,1.31,0,0,1,52.41,25.48Z" transform="translate(-7.11 -17.32)" fill="#bd71dc"/>
    <path d="M53.41,25.77A23.49,23.49,0,0,1,60,28.57a25.14,25.14,0,0,1,5.08,4.11,24.21,24.21,0,0,1,4.68,7.06,1.29,1.29,0,0,0,.09.16c.09.16.11.35.21.5a26.69,26.69,0,0,1,1.72,7.43,33.18,33.18,0,0,1-.13,5.46.09.09,0,0,1-.13,0c-.49-.56-.91-1.18-1.41-1.74a17,17,0,0,0-9.33-5.44c-.68-.15-1.38-.18-2.06-.35-.41-.11-.37-.4-.29-.72a18.27,18.27,0,0,0,.58-4.93,20.31,20.31,0,0,0-1.71-7.74,20.58,20.58,0,0,0-4-5.87c-.13-.14-.31-.27-.27-.5l.24-.21A.13.13,0,0,1,53.41,25.77Z" transform="translate(-7.11 -17.32)" fill="#ac8f5f"/>
    <path d="M22.19,50.34a11.17,11.17,0,0,1,.1-1.83.66.66,0,0,1,0,.24c-.31,1.6.51,2.77,1.43,3.92A19.9,19.9,0,0,0,36.58,60a26.09,26.09,0,0,0,3.53.18.72.72,0,0,1,.1.62A17,17,0,0,0,41,68.59a17.43,17.43,0,0,0,3,5.29c.12.15.29.28.28.51,0,0,0,0,0,0A23.67,23.67,0,0,1,34.12,71,24.55,24.55,0,0,1,22.75,54.84a19.31,19.31,0,0,1-.46-3.71C22.28,50.86,22.22,50.6,22.19,50.34Z" transform="translate(-7.11 -17.32)" fill="#6e76dc"/>
    <path d="M89.6,52.69a3.46,3.46,0,1,1-3.48-3.46A3.48,3.48,0,0,1,89.6,52.69Z" transform="translate(-7.11 -17.32)" fill="#6e76dc"/>
    <path d="M9.35,44.8a2.24,2.24,0,1,1,2.25-2.26A2.27,2.27,0,0,1,9.35,44.8Z" transform="translate(-7.11 -17.32)" fill="#bd71dc"/>
    <path d="M51.05,20.3a1.49,1.49,0,1,1,1.45-1.53A1.49,1.49,0,0,1,51.05,20.3Z" transform="translate(-7.11 -17.32)" fill="#f47181"/>
    <path d="M80.19,65.66a1.49,1.49,0,1,1-1.48-1.48A1.46,1.46,0,0,1,80.19,65.66Z" transform="translate(-7.11 -17.32)" fill="#f47181"/>
    <path d="M26.7,85a1.45,1.45,0,0,1-1.49-1.47A1.49,1.49,0,1,1,26.7,85Z" transform="translate(-7.11 -17.32)" fill="#e1c26b"/>
    <path d="M44.23,74.39a16.83,16.83,0,0,1-4-8.34,15.76,15.76,0,0,1-.12-5.35c0-.16,0-.33,0-.5h.08a6.51,6.51,0,0,1,1.91-.3A19.94,19.94,0,0,0,49.87,57c.87-.55,1.66-1.22,2.51-1.79a.5.5,0,0,1,.17,0c.89.45,1.73,1,2.65,1.38A18.1,18.1,0,0,0,60.8,58a17.34,17.34,0,0,0,6.41-.73,18.63,18.63,0,0,0,3.43-1.49c.17-.09.33-.24.55-.16A18.86,18.86,0,0,1,70,59.48a23.66,23.66,0,0,1-3.45,5.8,25.33,25.33,0,0,1-3.35,3.44A24,24,0,0,1,58,72.11a24.68,24.68,0,0,1-7.84,2.3,27.68,27.68,0,0,1-4.27.17A6.35,6.35,0,0,1,44.23,74.39Z" transform="translate(-7.11 -17.32)" fill="#bd3b73"/>
    <path d="M53.09,26a24.72,24.72,0,0,1,3,3.71A20.35,20.35,0,0,1,59.18,40a18.34,18.34,0,0,1-.6,5.21c-.07.28,0,.43.22.53a.43.43,0,0,1-.39.13,15.94,15.94,0,0,0-6.06.66,16.45,16.45,0,0,0-5,2.4,2.3,2.3,0,0,1-.43.25.22.22,0,0,1-.16,0,17.78,17.78,0,0,1-2-6.35,17.25,17.25,0,0,1,1.42-9A17,17,0,0,1,50,28.36,15,15,0,0,1,53.09,26Z" transform="translate(-7.11 -17.32)" fill="#a47c5b"/>
    <path d="M46.79,49.1h.11c.25.19.32.5.48.75a17.24,17.24,0,0,0,4.68,5c.15.1.38.17.34.43a18.61,18.61,0,0,1-5.92,3.59,18.18,18.18,0,0,1-5.35,1.22,5.86,5.86,0,0,1-.94.08,12.4,12.4,0,0,1,1-3.64,17.18,17.18,0,0,1,4-6C45.68,50,46.25,49.56,46.79,49.1Z" transform="translate(-7.11 -17.32)" fill="#b1246e"/>
    <path d="M71.6,53.29h.09a11.27,11.27,0,0,1,.79,1.39,4.82,4.82,0,0,1-1.19.81.34.34,0,0,1-.09-.32A7.09,7.09,0,0,1,71.6,53.29Z" transform="translate(-7.11 -17.32)" fill="#e75a49"/>
    <path d="M70.1,40.4a.59.59,0,0,1-.21-.5A.58.58,0,0,1,70.1,40.4Z" transform="translate(-7.11 -17.32)" fill="#ceb066"/>
    <path d="M71.6,53.29a20.43,20.43,0,0,1-.31,2.2l-.1.11a17.22,17.22,0,0,1-6.3,2.34,17.57,17.57,0,0,1-3.91.19,18.93,18.93,0,0,1-4.89-1A16.13,16.13,0,0,1,52.5,55.3c0-.31.21-.44.38-.6a19,19,0,0,0,3.47-4.36,19.4,19.4,0,0,0,1.83-4.14,1.18,1.18,0,0,1,.22-.5h.4a17.38,17.38,0,0,1,12.54,7.12A1.07,1.07,0,0,1,71.6,53.29Z" transform="translate(-7.11 -17.32)" fill="#d34443"/>
    <path d="M58.4,45.7a8.32,8.32,0,0,1-.69,2.17,20.45,20.45,0,0,1-2.19,4,17.4,17.4,0,0,1-2.13,2.49c-.3.3-.59.62-.89.94h-.1c-.61-.56-1.3-1-1.93-1.55a16.91,16.91,0,0,1-2.86-3.35,3.75,3.75,0,0,1-.71-1.3,13.33,13.33,0,0,1,3-1.86,16.37,16.37,0,0,1,5.39-1.51A9.3,9.3,0,0,1,58.4,45.7Z" transform="translate(-7.11 -17.32)" fill="#cf3d41"/>
  </g>
</svg>
