<?xml version="1.0" encoding="UTF-8"?>
<svg id="_Слой_1" data-name="Слой 1" xmlns="http://www.w3.org/2000/svg" width="93.21" height="92.02" viewBox="0 0 93.21 92.02">
  <path d="m20.64,91.52c-.38-3.41.41-6.34,3.31-8.43,1.35-.98,2.89-1.47,4.57-1.48,3.79-.02,7.57,0,11.36,0h.7c0-1.48,0-2.9,0-4.33,0-4.87,0-9.75,0-14.62,0-4.84,0-9.68,0-14.51,0-4.84,0-9.68,0-14.51,0-4.84,0-9.68,0-14.51,0-1.47,0-2.94-.01-4.41,0-.2-.11-.48-.26-.57-2.45-1.45-4.87-2.97-7.39-4.29-2.23-1.18-4.72-1.48-7.23-1.34-2.45.14-4.9.4-7.43.62.4.98.74,1.85,1.11,2.72,2.91,6.98,5.82,13.95,8.72,20.93,1.51,3.62,3.02,7.24,4.51,10.87.09.22.12.54.03.74-1.91,4.39-4.8,7.97-9.22,10.02-5.62,2.6-11.1,2.06-16.17-1.5-3.07-2.16-5.23-5.07-6.67-8.5-.09-.21-.08-.52.01-.74,3.35-8.09,6.72-16.17,10.08-24.26,1.31-3.14,2.61-6.28,3.92-9.43.07-.16.12-.33.18-.49-.84-.1-1.67-.17-2.48-.31-1.26-.22-1.9-1.15-1.67-2.38.21-1.11,1.17-1.65,2.39-1.57,1.46.09,2.93.08,4.38-.02,2.79-.2,5.58-.59,8.37-.73,4.37-.23,8.35,1.08,12.05,3.31.9.54,1.78,1.09,2.78,1.7,0-.75-.03-1.44,0-2.12.04-.85.03-1.73.24-2.55.71-2.81,3.65-4.66,6.63-4.26,2.88.39,5.15,2.97,5.14,5.84,0,2.18,0,4.37,0,6.61,1.1-.13,2.15-.25,3.2-.37,4.03-.47,8.05-.52,11.87,1.05,2.1.86,4.11,1.94,6.12,2.99,1.86.96,3.66,2.03,5.5,3.02.54.29,1.13.47,1.72.64,1.24.36,1.84,1.32,1.54,2.49-.3,1.14-1.27,1.7-2.52,1.41-.45-.1-.9-.27-1.43-.43.33.82.63,1.59.95,2.35,1.95,4.68,3.9,9.36,5.85,14.03,2.4,5.75,4.8,11.51,7.18,17.27.09.23.15.55.06.76-2.19,4.93-5.51,8.82-10.75,10.68-5.09,1.8-9.96,1.11-14.41-1.95-3.16-2.17-5.38-5.12-6.89-8.6-.1-.24-.1-.6,0-.84,3.46-8.37,6.94-16.74,10.43-25.11,1.33-3.19,2.66-6.38,4-9.57.08-.2.15-.4.25-.65-.32-.19-.64-.39-.97-.57-2.25-1.22-4.47-2.51-6.76-3.64-2.66-1.32-5.54-1.74-8.5-1.51-2.02.16-4.03.39-6.05.57-.31.03-.39.15-.39.44,0,4.34,0,8.67,0,13.01,0,4.84,0,9.68,0,14.51s0,9.68,0,14.51c0,4.84,0,9.68,0,14.51,0,2.51,0,5.01,0,7.61.23,0,.44,0,.65,0,3.71,0,7.43,0,11.14,0,3.91,0,7.09,2.38,7.98,6.15.29,1.2.22,2.47.31,3.76H20.64Zm27.91-9.05v-.55c0-25.08,0-50.17,0-75.25,0-.25-.01-.51-.09-.75-.29-.97-1.22-1.5-2.26-1.33-.96.16-1.56.97-1.56,2.1,0,25.07,0,50.13,0,75.2,0,.19.02.38.03.57h3.88Zm17.09-25.99h21.92c-3.65-8.87-7.28-17.69-10.96-26.62-3.69,8.96-7.31,17.77-10.96,26.62Zm-38.09-14.01c-3.64-8.85-7.27-17.66-10.96-26.61-3.69,8.97-7.31,17.77-10.96,26.61h21.91Zm-.49,4.13H6.14c4.91,7.83,15.91,7.91,20.91,0Zm39.04,13.98c2.72,3.95,6.3,6.1,11.08,5.9,4.31-.18,7.51-2.32,9.93-5.9h-21.01Z" stroke="#000" stroke-miterlimit="10"/>
</svg>